<svg width="58" height="58" viewBox="0 0 58 58" fill="none" xmlns="http://www.w3.org/2000/svg">
<path d="M0 8.65408V0.0721741H39.7407V11.6041V30.3969C39.7407 41.3726 0 46.1999 0 46.1999V37.618C0 37.618 32.3603 36.2324 32.3603 25.0133V8.65408H0Z" fill="url(#paint0_linear_28_108)"/>
<path d="M0 49.4182C0 49.4182 42.6195 43.9399 42.6195 30.7233V14.1309V0.0721741H48.8704V30.1089C48.8704 53.1675 0 58.0001 0 58.0001V49.4182Z" fill="url(#paint1_linear_28_108)"/>
<path d="M9.12964 58C9.12964 58 51.7702 54.0015 51.7702 30.2771V5.21985V0.0721084L58 0.0721041V27.3449C58 57.4669 9.12964 58 9.12964 58Z" fill="url(#paint2_linear_28_108)"/>
<defs>
<linearGradient id="paint0_linear_28_108" x1="19.8704" y1="0.0721741" x2="19.8704" y2="46.1999" gradientUnits="userSpaceOnUse">
<stop stop-color="#911E1E"/>
<stop offset="1" stop-color="#3D3D3D"/>
</linearGradient>
<linearGradient id="paint1_linear_28_108" x1="24.4352" y1="0.0721741" x2="24.4352" y2="58.0001" gradientUnits="userSpaceOnUse">
<stop stop-color="#911E1E"/>
<stop offset="1" stop-color="#3D3D3D"/>
</linearGradient>
<linearGradient id="paint2_linear_28_108" x1="33.5648" y1="0" x2="33.5648" y2="58" gradientUnits="userSpaceOnUse">
<stop stop-color="#911E1E"/>
<stop offset="1" stop-color="#3D3D3D"/>
</linearGradient>
</defs>
</svg>
